<svg xmlns="http://www.w3.org/2000/svg" xmlns:xlink="http://www.w3.org/1999/xlink" contentStyleType="text/css" height="886px" preserveAspectRatio="none" style="width:758px;height:886px;background:#FFFFFF;" version="1.1" viewBox="0 0 758 886" width="758px" zoomAndPan="magnify"><defs/><g><!--class InicioDeSesi?n--><g id="elem_InicioDeSesi&#243;n"><rect codeLine="1" fill="#F1F1F1" height="80.5938" id="InicioDeSesi&#243;n" rx="2.5" ry="2.5" style="stroke:#181818;stroke-width:0.5;" width="134.5596" x="362.98" y="7"/><ellipse cx="377.98" cy="23" fill="#ADD1B2" rx="11" ry="11" style="stroke:#181818;stroke-width:1.0;"/><path d="M380.9488,28.6406 Q380.3706,28.9375 379.73,29.0781 Q379.0894,29.2344 378.3863,29.2344 Q375.8863,29.2344 374.5581,27.5938 Q373.2456,25.9375 373.2456,22.8125 Q373.2456,19.6875 374.5581,18.0313 Q375.8863,16.375 378.3863,16.375 Q379.0894,16.375 379.73,16.5313 Q380.3863,16.6875 380.9488,16.9844 L380.9488,19.7031 Q380.3238,19.125 379.73,18.8594 Q379.1363,18.5781 378.5113,18.5781 Q377.1675,18.5781 376.48,19.6563 Q375.7925,20.7188 375.7925,22.8125 Q375.7925,24.9063 376.48,25.9844 Q377.1675,27.0469 378.5113,27.0469 Q379.1363,27.0469 379.73,26.7813 Q380.3238,26.5 380.9488,25.9219 L380.9488,28.6406 Z " fill="#000000"/><text fill="#000000" font-family="sans-serif" font-size="14" lengthAdjust="spacing" textLength="102.5596" x="391.98" y="27.8467">InicioDeSesi&#243;n</text><line style="stroke:#181818;stroke-width:0.5;" x1="363.98" x2="496.5396" y1="39" y2="39"/><text fill="#000000" font-family="sans-serif" font-size="14" lengthAdjust="spacing" textLength="44.9531" x="368.98" y="55.9951">correo</text><text fill="#000000" font-family="sans-serif" font-size="14" lengthAdjust="spacing" textLength="78.3193" x="368.98" y="72.292">contrase&#241;a</text><line style="stroke:#181818;stroke-width:0.5;" x1="363.98" x2="496.5396" y1="79.5938" y2="79.5938"/></g><!--class Usuario--><g id="elem_Usuario"><rect codeLine="6" fill="#F1F1F1" height="80.5938" id="Usuario" rx="2.5" ry="2.5" style="stroke:#181818;stroke-width:0.5;" width="119.0576" x="370.73" y="164.59"/><ellipse cx="400.9641" cy="180.59" fill="#ADD1B2" rx="11" ry="11" style="stroke:#181818;stroke-width:1.0;"/><path d="M403.9328,186.2306 Q403.3547,186.5275 402.7141,186.6681 Q402.0735,186.8244 401.3703,186.8244 Q398.8703,186.8244 397.5422,185.1838 Q396.2297,183.5275 396.2297,180.4025 Q396.2297,177.2775 397.5422,175.6213 Q398.8703,173.965 401.3703,173.965 Q402.0735,173.965 402.7141,174.1213 Q403.3703,174.2775 403.9328,174.5744 L403.9328,177.2931 Q403.3078,176.715 402.7141,176.4494 Q402.1203,176.1681 401.4953,176.1681 Q400.1516,176.1681 399.4641,177.2463 Q398.7766,178.3088 398.7766,180.4025 Q398.7766,182.4963 399.4641,183.5744 Q400.1516,184.6369 401.4953,184.6369 Q402.1203,184.6369 402.7141,184.3713 Q403.3078,184.09 403.9328,183.5119 L403.9328,186.2306 Z " fill="#000000"/><text fill="#000000" font-family="sans-serif" font-size="14" lengthAdjust="spacing" textLength="53.2041" x="418.3494" y="185.4367">Usuario</text><line style="stroke:#181818;stroke-width:0.5;" x1="371.73" x2="488.7876" y1="196.59" y2="196.59"/><text fill="#000000" font-family="sans-serif" font-size="14" lengthAdjust="spacing" textLength="54.332" x="376.73" y="213.5851">nombre</text><text fill="#000000" font-family="sans-serif" font-size="14" lengthAdjust="spacing" textLength="107.0576" x="376.73" y="229.882">controlParental</text><line style="stroke:#181818;stroke-width:0.5;" x1="371.73" x2="488.7876" y1="237.1838" y2="237.1838"/></g><!--class Recomendaciones--><g id="elem_Recomendaciones"><rect codeLine="11" fill="#F1F1F1" height="80.5938" id="Recomendaciones" rx="2.5" ry="2.5" style="stroke:#181818;stroke-width:0.5;" width="160.126" x="186.2" y="322.18"/><ellipse cx="201.2" cy="338.18" fill="#ADD1B2" rx="11" ry="11" style="stroke:#181818;stroke-width:1.0;"/><path d="M204.1688,343.8206 Q203.5906,344.1175 202.95,344.2581 Q202.3094,344.4144 201.6063,344.4144 Q199.1063,344.4144 197.7781,342.7738 Q196.4656,341.1175 196.4656,337.9925 Q196.4656,334.8675 197.7781,333.2113 Q199.1063,331.555 201.6063,331.555 Q202.3094,331.555 202.95,331.7113 Q203.6063,331.8675 204.1688,332.1644 L204.1688,334.8831 Q203.5438,334.305 202.95,334.0394 Q202.3563,333.7581 201.7313,333.7581 Q200.3875,333.7581 199.7,334.8363 Q199.0125,335.8988 199.0125,337.9925 Q199.0125,340.0863 199.7,341.1644 Q200.3875,342.2269 201.7313,342.2269 Q202.3563,342.2269 202.95,341.9613 Q203.5438,341.68 204.1688,341.1019 L204.1688,343.8206 Z " fill="#000000"/><text fill="#000000" font-family="sans-serif" font-size="14" lengthAdjust="spacing" textLength="128.126" x="215.2" y="343.0267">Recomendaciones</text><line style="stroke:#181818;stroke-width:0.5;" x1="187.2" x2="345.326" y1="354.18" y2="354.18"/><text fill="#000000" font-family="sans-serif" font-size="14" lengthAdjust="spacing" textLength="95.3613" x="192.2" y="371.1751">listaDeVideos</text><text fill="#000000" font-family="sans-serif" font-size="14" lengthAdjust="spacing" textLength="66.0557" x="192.2" y="387.472">categor&#237;a</text><line style="stroke:#181818;stroke-width:0.5;" x1="187.2" x2="345.326" y1="394.7738" y2="394.7738"/></g><!--class Buscador--><g id="elem_Buscador"><rect codeLine="16" fill="#F1F1F1" height="64.2969" id="Buscador" rx="2.5" ry="2.5" style="stroke:#181818;stroke-width:0.5;" width="97.2559" x="381.63" y="330.33"/><ellipse cx="396.63" cy="346.33" fill="#ADD1B2" rx="11" ry="11" style="stroke:#181818;stroke-width:1.0;"/><path d="M399.5988,351.9706 Q399.0206,352.2675 398.38,352.4081 Q397.7394,352.5644 397.0363,352.5644 Q394.5363,352.5644 393.2081,350.9238 Q391.8956,349.2675 391.8956,346.1425 Q391.8956,343.0175 393.2081,341.3613 Q394.5363,339.705 397.0363,339.705 Q397.7394,339.705 398.38,339.8613 Q399.0363,340.0175 399.5988,340.3144 L399.5988,343.0331 Q398.9738,342.455 398.38,342.1894 Q397.7863,341.9081 397.1613,341.9081 Q395.8175,341.9081 395.13,342.9863 Q394.4425,344.0488 394.4425,346.1425 Q394.4425,348.2363 395.13,349.3144 Q395.8175,350.3769 397.1613,350.3769 Q397.7863,350.3769 398.38,350.1113 Q398.9738,349.83 399.5988,349.2519 L399.5988,351.9706 Z " fill="#000000"/><text fill="#000000" font-family="sans-serif" font-size="14" lengthAdjust="spacing" textLength="65.2559" x="410.63" y="351.1767">Buscador</text><line style="stroke:#181818;stroke-width:0.5;" x1="382.63" x2="477.8859" y1="362.33" y2="362.33"/><text fill="#000000" font-family="sans-serif" font-size="14" lengthAdjust="spacing" textLength="68.8926" x="387.63" y="379.3251">b&#250;squeda</text><line style="stroke:#181818;stroke-width:0.5;" x1="382.63" x2="477.8859" y1="386.6269" y2="386.6269"/></g><!--class Video--><g id="elem_Video"><rect codeLine="20" fill="#F1F1F1" height="96.8906" id="Video" rx="2.5" ry="2.5" style="stroke:#181818;stroke-width:0.5;" width="84.0166" x="384.25" y="592.26"/><ellipse cx="404.868" cy="608.26" fill="#ADD1B2" rx="11" ry="11" style="stroke:#181818;stroke-width:1.0;"/><path d="M407.8367,613.9006 Q407.2586,614.1975 406.618,614.3381 Q405.9773,614.4944 405.2742,614.4944 Q402.7742,614.4944 401.4461,612.8538 Q400.1336,611.1975 400.1336,608.0725 Q400.1336,604.9475 401.4461,603.2913 Q402.7742,601.635 405.2742,601.635 Q405.9773,601.635 406.618,601.7913 Q407.2742,601.9475 407.8367,602.2444 L407.8367,604.9631 Q407.2117,604.385 406.618,604.1194 Q406.0242,603.8381 405.3992,603.8381 Q404.0555,603.8381 403.368,604.9163 Q402.6805,605.9788 402.6805,608.0725 Q402.6805,610.1663 403.368,611.2444 Q404.0555,612.3069 405.3992,612.3069 Q406.0242,612.3069 406.618,612.0413 Q407.2117,611.76 407.8367,611.1819 L407.8367,613.9006 Z " fill="#000000"/><text fill="#000000" font-family="sans-serif" font-size="14" lengthAdjust="spacing" textLength="39.5322" x="420.1164" y="613.1067">Video</text><line style="stroke:#181818;stroke-width:0.5;" x1="385.25" x2="467.2666" y1="624.26" y2="624.26"/><text fill="#000000" font-family="sans-serif" font-size="14" lengthAdjust="spacing" textLength="72.0166" x="390.25" y="641.2551">resoluci&#243;n</text><text fill="#000000" font-family="sans-serif" font-size="14" lengthAdjust="spacing" textLength="54.332" x="390.25" y="657.552">nombre</text><text fill="#000000" font-family="sans-serif" font-size="14" lengthAdjust="spacing" textLength="26.8311" x="390.25" y="673.8489">tipo</text><line style="stroke:#181818;stroke-width:0.5;" x1="385.25" x2="467.2666" y1="681.1506" y2="681.1506"/></g><!--class PistaDeAudio--><g id="elem_PistaDeAudio"><rect codeLine="26" fill="#F1F1F1" height="80.5938" id="PistaDeAudio" rx="2.5" ry="2.5" style="stroke:#181818;stroke-width:0.5;" width="124.8799" x="253.82" y="782.45"/><ellipse cx="268.82" cy="798.45" fill="#ADD1B2" rx="11" ry="11" style="stroke:#181818;stroke-width:1.0;"/><path d="M271.7888,804.0906 Q271.2106,804.3875 270.57,804.5281 Q269.9294,804.6844 269.2263,804.6844 Q266.7263,804.6844 265.3981,803.0438 Q264.0856,801.3875 264.0856,798.2625 Q264.0856,795.1375 265.3981,793.4813 Q266.7263,791.825 269.2263,791.825 Q269.9294,791.825 270.57,791.9813 Q271.2263,792.1375 271.7888,792.4344 L271.7888,795.1531 Q271.1638,794.575 270.57,794.3094 Q269.9763,794.0281 269.3513,794.0281 Q268.0075,794.0281 267.32,795.1063 Q266.6325,796.1688 266.6325,798.2625 Q266.6325,800.3563 267.32,801.4344 Q268.0075,802.4969 269.3513,802.4969 Q269.9763,802.4969 270.57,802.2313 Q271.1638,801.95 271.7888,801.3719 L271.7888,804.0906 Z " fill="#000000"/><text fill="#000000" font-family="sans-serif" font-size="14" lengthAdjust="spacing" textLength="92.8799" x="282.82" y="803.2967">PistaDeAudio</text><line style="stroke:#181818;stroke-width:0.5;" x1="254.82" x2="377.6999" y1="814.45" y2="814.45"/><text fill="#000000" font-family="sans-serif" font-size="14" lengthAdjust="spacing" textLength="47.4482" x="259.82" y="831.4451">idioma</text><text fill="#000000" font-family="sans-serif" font-size="14" lengthAdjust="spacing" textLength="50.4082" x="259.82" y="847.742">calidad</text><line style="stroke:#181818;stroke-width:0.5;" x1="254.82" x2="377.6999" y1="855.0438" y2="855.0438"/></g><!--class Subt?tulos--><g id="elem_Subt&#237;tulos"><rect codeLine="31" fill="#F1F1F1" height="113.1875" id="Subt&#237;tulos" rx="2.5" ry="2.5" style="stroke:#181818;stroke-width:0.5;" width="102.1367" x="414.19" y="766.15"/><ellipse cx="429.19" cy="782.15" fill="#ADD1B2" rx="11" ry="11" style="stroke:#181818;stroke-width:1.0;"/><path d="M432.1588,787.7906 Q431.5806,788.0875 430.94,788.2281 Q430.2994,788.3844 429.5963,788.3844 Q427.0963,788.3844 425.7681,786.7438 Q424.4556,785.0875 424.4556,781.9625 Q424.4556,778.8375 425.7681,777.1813 Q427.0963,775.525 429.5963,775.525 Q430.2994,775.525 430.94,775.6813 Q431.5963,775.8375 432.1588,776.1344 L432.1588,778.8531 Q431.5338,778.275 430.94,778.0094 Q430.3463,777.7281 429.7213,777.7281 Q428.3775,777.7281 427.69,778.8063 Q427.0025,779.8688 427.0025,781.9625 Q427.0025,784.0563 427.69,785.1344 Q428.3775,786.1969 429.7213,786.1969 Q430.3463,786.1969 430.94,785.9313 Q431.5338,785.65 432.1588,785.0719 L432.1588,787.7906 Z " fill="#000000"/><text fill="#000000" font-family="sans-serif" font-size="14" lengthAdjust="spacing" textLength="70.1367" x="443.19" y="786.9967">Subt&#237;tulos</text><line style="stroke:#181818;stroke-width:0.5;" x1="415.19" x2="515.3267" y1="798.15" y2="798.15"/><text fill="#000000" font-family="sans-serif" font-size="14" lengthAdjust="spacing" textLength="47.4482" x="420.19" y="815.1451">idioma</text><text fill="#000000" font-family="sans-serif" font-size="14" lengthAdjust="spacing" textLength="34.4736" x="420.19" y="831.442">color</text><text fill="#000000" font-family="sans-serif" font-size="14" lengthAdjust="spacing" textLength="53.7236" x="420.19" y="847.7389">tama&#241;o</text><text fill="#000000" font-family="sans-serif" font-size="14" lengthAdjust="spacing" textLength="45.3906" x="420.19" y="864.0357">fuente</text><line style="stroke:#181818;stroke-width:0.5;" x1="415.19" x2="515.3267" y1="871.3375" y2="871.3375"/></g><!--class AjustesDeCuenta--><g id="elem_AjustesDeCuenta"><rect codeLine="38" fill="#F1F1F1" height="129.4844" id="AjustesDeCuenta" rx="2.5" ry="2.5" style="stroke:#181818;stroke-width:0.5;" width="154.4131" x="597.05" y="432.78"/><ellipse cx="612.8538" cy="448.78" fill="#ADD1B2" rx="11" ry="11" style="stroke:#181818;stroke-width:1.0;"/><path d="M615.8225,454.4206 Q615.2444,454.7175 614.6038,454.8581 Q613.9631,455.0144 613.26,455.0144 Q610.76,455.0144 609.4319,453.3738 Q608.1194,451.7175 608.1194,448.5925 Q608.1194,445.4675 609.4319,443.8113 Q610.76,442.155 613.26,442.155 Q613.9631,442.155 614.6038,442.3113 Q615.26,442.4675 615.8225,442.7644 L615.8225,445.4831 Q615.1975,444.905 614.6038,444.6394 Q614.01,444.3581 613.385,444.3581 Q612.0413,444.3581 611.3538,445.4363 Q610.6663,446.4988 610.6663,448.5925 Q610.6663,450.6863 611.3538,451.7644 Q612.0413,452.8269 613.385,452.8269 Q614.01,452.8269 614.6038,452.5613 Q615.1975,452.28 615.8225,451.7019 L615.8225,454.4206 Z " fill="#000000"/><text fill="#000000" font-family="sans-serif" font-size="14" lengthAdjust="spacing" textLength="120.627" x="627.0324" y="453.6267">AjustesDeCuenta</text><line style="stroke:#181818;stroke-width:0.5;" x1="598.05" x2="750.4631" y1="464.78" y2="464.78"/><text fill="#000000" font-family="sans-serif" font-size="14" lengthAdjust="spacing" textLength="47.4482" x="603.05" y="481.7751">idioma</text><text fill="#000000" font-family="sans-serif" font-size="14" lengthAdjust="spacing" textLength="44.584" x="603.05" y="498.072">regi&#243;n</text><text fill="#000000" font-family="sans-serif" font-size="14" lengthAdjust="spacing" textLength="63.3623" x="603.05" y="514.3689">conexi&#243;n</text><text fill="#000000" font-family="sans-serif" font-size="14" lengthAdjust="spacing" textLength="107.625" x="603.05" y="530.6657">m&#233;todoDePago</text><text fill="#000000" font-family="sans-serif" font-size="14" lengthAdjust="spacing" textLength="142.4131" x="603.05" y="546.9626">calidadDeStreaming</text><line style="stroke:#181818;stroke-width:0.5;" x1="598.05" x2="750.4631" y1="554.2644" y2="554.2644"/></g><!--class Watchlist--><g id="elem_Watchlist"><rect codeLine="46" fill="#F1F1F1" height="64.2969" id="Watchlist" rx="2.5" ry="2.5" style="stroke:#181818;stroke-width:0.5;" width="107.3613" x="513.58" y="330.33"/><ellipse cx="533.2228" cy="346.33" fill="#ADD1B2" rx="11" ry="11" style="stroke:#181818;stroke-width:1.0;"/><path d="M536.1916,351.9706 Q535.6134,352.2675 534.9728,352.4081 Q534.3322,352.5644 533.6291,352.5644 Q531.1291,352.5644 529.8009,350.9238 Q528.4884,349.2675 528.4884,346.1425 Q528.4884,343.0175 529.8009,341.3613 Q531.1291,339.705 533.6291,339.705 Q534.3322,339.705 534.9728,339.8613 Q535.6291,340.0175 536.1916,340.3144 L536.1916,343.0331 Q535.5666,342.455 534.9728,342.1894 Q534.3791,341.9081 533.7541,341.9081 Q532.4103,341.9081 531.7228,342.9863 Q531.0353,344.0488 531.0353,346.1425 Q531.0353,348.2363 531.7228,349.3144 Q532.4103,350.3769 533.7541,350.3769 Q534.3791,350.3769 534.9728,350.1113 Q535.5666,349.83 536.1916,349.2519 L536.1916,351.9706 Z " fill="#000000"/><text fill="#000000" font-family="sans-serif" font-size="14" lengthAdjust="spacing" textLength="65.0439" x="548.2546" y="351.1767">Watchlist</text><line style="stroke:#181818;stroke-width:0.5;" x1="514.58" x2="619.9413" y1="362.33" y2="362.33"/><text fill="#000000" font-family="sans-serif" font-size="14" lengthAdjust="spacing" textLength="95.3613" x="519.58" y="379.3251">listaDeVideos</text><line style="stroke:#181818;stroke-width:0.5;" x1="514.58" x2="619.9413" y1="386.6269" y2="386.6269"/></g><!--class Suscripci?n--><g id="elem_Suscripci&#243;n"><rect codeLine="50" fill="#F1F1F1" height="80.5938" id="Suscripci&#243;n" rx="2.5" ry="2.5" style="stroke:#181818;stroke-width:0.5;" width="168.6934" x="569.91" y="782.45"/><ellipse cx="610.2831" cy="798.45" fill="#ADD1B2" rx="11" ry="11" style="stroke:#181818;stroke-width:1.0;"/><path d="M613.2519,804.0906 Q612.6738,804.3875 612.0331,804.5281 Q611.3925,804.6844 610.6894,804.6844 Q608.1894,804.6844 606.8613,803.0438 Q605.5488,801.3875 605.5488,798.2625 Q605.5488,795.1375 606.8613,793.4813 Q608.1894,791.825 610.6894,791.825 Q611.3925,791.825 612.0331,791.9813 Q612.6894,792.1375 613.2519,792.4344 L613.2519,795.1531 Q612.6269,794.575 612.0331,794.3094 Q611.4394,794.0281 610.8144,794.0281 Q609.4706,794.0281 608.7831,795.1063 Q608.0956,796.1688 608.0956,798.2625 Q608.0956,800.3563 608.7831,801.4344 Q609.4706,802.4969 610.8144,802.4969 Q611.4394,802.4969 612.0331,802.2313 Q612.6269,801.95 613.2519,801.3719 L613.2519,804.0906 Z " fill="#000000"/><text fill="#000000" font-family="sans-serif" font-size="14" lengthAdjust="spacing" textLength="80.3086" x="629.9216" y="803.2967">Suscripci&#243;n</text><line style="stroke:#181818;stroke-width:0.5;" x1="570.91" x2="737.6034" y1="814.45" y2="814.45"/><text fill="#000000" font-family="sans-serif" font-size="14" lengthAdjust="spacing" textLength="30.2285" x="575.91" y="831.4451">plan</text><text fill="#000000" font-family="sans-serif" font-size="14" lengthAdjust="spacing" textLength="156.6934" x="575.91" y="847.742">dispositivosPermitidos</text><line style="stroke:#181818;stroke-width:0.5;" x1="570.91" x2="737.6034" y1="855.0438" y2="855.0438"/></g><!--link InicioDeSesi?n to Usuario--><g id="link_InicioDeSesi&#243;n_Usuario"><path codeLine="55" d="M430.26,87.96 C430.26,111.37 430.26,134.9 430.26,158.29 " fill="none" id="InicioDeSesi&#243;n-to-Usuario" style="stroke:#181818;stroke-width:1.0;"/><polygon fill="#181818" points="430.26,164.29,434.26,155.29,430.26,159.29,426.26,155.29,430.26,164.29" style="stroke:#181818;stroke-width:1.0;"/><text fill="#000000" font-family="sans-serif" font-size="13" lengthAdjust="spacing" textLength="79.6694" x="431.26" y="130.6569">inicia sesi&#243;n</text></g><!--link Usuario to Recomendaciones--><g id="link_Usuario_Recomendaciones"><path codeLine="56" d="M388.45,245.55 C363.78,268.96 337.0024,294.36 312.3424,317.76 " fill="none" id="Usuario-to-Recomendaciones" style="stroke:#181818;stroke-width:1.0;"/><polygon fill="#181818" points="307.99,321.89,317.2719,318.5966,311.617,318.4483,311.7652,312.7934,307.99,321.89" style="stroke:#181818;stroke-width:1.0;"/><text fill="#000000" font-family="sans-serif" font-size="13" lengthAdjust="spacing" textLength="46.5093" x="354.26" y="288.2469">accede</text></g><!--link Usuario to Watchlist--><g id="link_Usuario_Watchlist"><path codeLine="57" d="M465.18,245.55 C488.25,271.75 514.1039,301.1177 535.5539,325.4677 " fill="none" id="Usuario-to-Watchlist" style="stroke:#181818;stroke-width:1.0;"/><polygon fill="#181818" points="539.52,329.97,536.5724,320.5726,536.215,326.2181,530.5694,325.8606,539.52,329.97" style="stroke:#181818;stroke-width:1.0;"/><text fill="#000000" font-family="sans-serif" font-size="13" lengthAdjust="spacing" textLength="38.9619" x="504.26" y="288.2469">utiliza</text></g><!--link Usuario to AjustesDeCuenta--><g id="link_Usuario_AjustesDeCuenta"><path codeLine="58" d="M490.28,223.97 C537.77,241.43 601.95,272.62 638.26,322.18 C661.46,353.85 670.5,397 673.72,432.45 " fill="none" id="Usuario-AjustesDeCuenta" style="stroke:#181818;stroke-width:1.0;"/><text fill="#000000" font-family="sans-serif" font-size="13" lengthAdjust="spacing" textLength="61.3311" x="611.26" y="288.2469">configura</text></g><!--link Usuario to Buscador--><g id="link_Usuario_Buscador"><path codeLine="59" d="M430.26,245.55 C430.26,271.75 430.26,299.62 430.26,323.97 " fill="none" id="Usuario-to-Buscador" style="stroke:#181818;stroke-width:1.0;"/><polygon fill="#181818" points="430.26,329.97,434.26,320.97,430.26,324.97,426.26,320.97,430.26,329.97" style="stroke:#181818;stroke-width:1.0;"/><text fill="#000000" font-family="sans-serif" font-size="13" lengthAdjust="spacing" textLength="38.9619" x="431.26" y="288.2469">utiliza</text></g><!--link Usuario to Video--><g id="link_Usuario_Video"><path codeLine="60" d="M370.5,207.39 C293.33,212.93 161.68,235.42 100.26,322.18 C6,455.35 270.3523,578.0438 378.2623,621.3838 " fill="none" id="Usuario-to-Video" style="stroke:#181818;stroke-width:1.0;"/><polygon fill="#181818" points="383.83,623.62,376.9692,616.5539,379.1902,621.7565,373.9876,623.9776,383.83,623.62" style="stroke:#181818;stroke-width:1.0;"/><text fill="#000000" font-family="sans-serif" font-size="13" lengthAdjust="spacing" textLength="66.5298" x="101.26" y="367.0469">reproduce</text></g><!--link Recomendaciones to Video--><g id="link_Recomendaciones_Video"><path codeLine="62" d="M283.47,403.17 C301.89,444.19 332.98,509.49 366.26,562.26 C372.52,572.19 376.1465,577.6002 383.3965,587.2102 " fill="none" id="Recomendaciones-to-Video" style="stroke:#181818;stroke-width:1.0;"/><polygon fill="#181818" points="387.01,592,384.7829,582.4063,383.9987,588.0085,378.3965,587.2243,387.01,592" style="stroke:#181818;stroke-width:1.0;"/><text fill="#000000" font-family="sans-serif" font-size="13" lengthAdjust="spacing" textLength="46.541" x="367.26" y="502.0869">incluye</text></g><!--link Watchlist to Video--><g id="link_Watchlist_Video"><path codeLine="63" d="M542.74,394.8 C534.84,406.21 526.72,419.57 521.26,432.78 C498.83,487.02 521.47,509.74 495.26,562.26 C488.5,575.8 482.7295,584.2997 472.6795,595.6397 " fill="none" id="Watchlist-to-Video" style="stroke:#181818;stroke-width:1.0;"/><polygon fill="#181818" points="468.7,600.13,477.6629,596.0475,472.0163,596.388,471.6757,590.7414,468.7,600.13" style="stroke:#181818;stroke-width:1.0;"/><text fill="#000000" font-family="sans-serif" font-size="13" lengthAdjust="spacing" textLength="56.2847" x="522.26" y="502.0869">contiene</text></g><!--link Buscador to Video--><g id="link_Buscador_Video"><path codeLine="64" d="M426.42,394.82 C425.14,406.69 423.89,420.34 423.26,432.78 C420.51,487.32 421.8315,544.0451 423.5715,586.0151 " fill="none" id="Buscador-to-Video" style="stroke:#181818;stroke-width:1.0;"/><polygon fill="#181818" points="423.82,592.01,427.4438,582.852,423.6129,587.0143,419.4506,583.1834,423.82,592.01" style="stroke:#181818;stroke-width:1.0;"/><text fill="#000000" font-family="sans-serif" font-size="13" lengthAdjust="spacing" textLength="66.2695" x="424.26" y="502.0869">encuentra</text></g><!--link Video to PistaDeAudio--><g id="link_Video_PistaDeAudio"><path codeLine="66" d="M397.07,689.48 C379.44,718.34 357.23,754.68 340.56,781.97 " fill="none" id="Video-PistaDeAudio" style="stroke:#181818;stroke-width:1.0;"/><text fill="#000000" font-family="sans-serif" font-size="13" lengthAdjust="spacing" textLength="32.9443" x="379.26" y="732.2169">tiene</text></g><!--link Video to Subt?tulos--><g id="link_Video_Subt&#237;tulos"><path codeLine="67" d="M436.61,689.48 C441.69,712.92 447.83,741.3 453.13,765.76 " fill="none" id="Video-Subt&#237;tulos" style="stroke:#181818;stroke-width:1.0;"/><text fill="#000000" font-family="sans-serif" font-size="13" lengthAdjust="spacing" textLength="32.9443" x="447.26" y="732.2169">tiene</text></g><!--link Video to Suscripci?n--><g id="link_Video_Suscripci&#243;n"><path codeLine="68" d="M468.61,675.15 C506.99,705.45 558.8712,746.4215 599.4812,778.4915 " fill="none" id="Video-to-Suscripci&#243;n" style="stroke:#181818;stroke-width:1.0;"/><polygon fill="#181818" points="604.19,782.21,599.6059,773.493,600.266,779.1112,594.6478,779.7714,604.19,782.21" style="stroke:#181818;stroke-width:1.0;"/><text fill="#000000" font-family="sans-serif" font-size="13" lengthAdjust="spacing" textLength="56.9893" x="541.26" y="732.2169">depende</text></g><!--link AjustesDeCuenta to Suscripci?n--><g id="link_AjustesDeCuenta_Suscripci&#243;n"><path codeLine="70" d="M670.31,562.38 C666.27,627.69 660.4802,721.1314 657.0902,775.9714 " fill="none" id="AjustesDeCuenta-to-Suscripci&#243;n" style="stroke:#181818;stroke-width:1.0;"/><polygon fill="#181818" points="656.72,781.96,661.2677,773.2239,657.0285,776.9695,653.2829,772.7304,656.72,781.96" style="stroke:#181818;stroke-width:1.0;"/><text fill="#000000" font-family="sans-serif" font-size="13" lengthAdjust="spacing" textLength="55.8911" x="669.26" y="645.2769">gestiona</text></g><!--SRC=[RL8najim3Epv2dxWFg32CqxSfFES9qaDax226uhG4MGcTvayA8KBJxgq-bWeKv5esQvexG9OBDOu4D6VF1dY7HvGQFZZzK-byyzm2CZJqyS0WiC5r2-bpBNgioG8n1FRStSCkB3PxI6WZ-2MYcSqtA6taATvbAdIaKJOuHUoo58QGCIMmt2kfdr8Oi1oc8gEmrzvJMWhnhN110SKTicCswpLHUfvATgNuTjavqqeFpkOX3YoO1Vw8HtZS8x9iJnWi-DGPa07mwLuTqhP1LnQR5-IH9GTVXm1k6yJi9rrPolnn_ol6tv7jlbGUsYv5fXF5mD2HxvT1ds5QBwDvZxqkLf9JA3UL9Vl7PI1bgHdeKZVMVOOkloofNOTcQUdpHo8HjE8WfO2gl_0I5fdeD5W35gy8ItI6vqYENg72h-pi1bzEb6R0joqcJFpgCjc2aoJ3Uy3ssHGgRMwcaRUkFI6QX5NesFe2JsgUMYDeZUZrAnFbKzvYvleDRfKpsYTj3MukJrQeotsMNJMltRc0RT5YNav-0S0]--></g></svg>