<svg xmlns="http://www.w3.org/2000/svg" xmlns:xlink="http://www.w3.org/1999/xlink" contentStyleType="text/css" height="778px" preserveAspectRatio="none" style="width:880px;height:778px;background:#FFFFFF;" version="1.1" viewBox="0 0 880 778" width="880px" zoomAndPan="magnify"><defs/><g><ellipse cx="293.02" cy="16" fill="#222222" rx="10" ry="10" style="stroke:#222222;stroke-width:1.0;"/><g id="SinAcceso"><rect fill="#F1F1F1" height="50" rx="12.5" ry="12.5" style="stroke:#181818;stroke-width:0.5;" width="91.0938" x="247.47" y="87"/><line style="stroke:#181818;stroke-width:0.5;" x1="247.47" x2="338.5638" y1="113.2969" y2="113.2969"/><text fill="#000000" font-family="sans-serif" font-size="14" lengthAdjust="spacing" textLength="71.0938" x="257.47" y="104.9951">SinAcceso</text></g><g id="InicioDeSesi&#243;n"><rect fill="#F1F1F1" height="50" rx="12.5" ry="12.5" style="stroke:#181818;stroke-width:0.5;" width="122.5596" x="225.74" y="341"/><line style="stroke:#181818;stroke-width:0.5;" x1="225.74" x2="348.2996" y1="367.2969" y2="367.2969"/><text fill="#000000" font-family="sans-serif" font-size="14" lengthAdjust="spacing" textLength="102.5596" x="235.74" y="358.9951">InicioDeSesi&#243;n</text></g><g id="Registro"><rect fill="#F1F1F1" height="50" rx="12.5" ry="12.5" style="stroke:#181818;stroke-width:0.5;" width="78.2217" x="199.91" y="214"/><line style="stroke:#181818;stroke-width:0.5;" x1="199.91" x2="278.1317" y1="240.2969" y2="240.2969"/><text fill="#000000" font-family="sans-serif" font-size="14" lengthAdjust="spacing" textLength="58.2217" x="209.91" y="231.9951">Registro</text></g><g id="Selecci&#243;nDeUsuario"><rect fill="#F1F1F1" height="50" rx="12.5" ry="12.5" style="stroke:#181818;stroke-width:0.5;" width="159.3232" x="275.35" y="468"/><line style="stroke:#181818;stroke-width:0.5;" x1="275.35" x2="434.6732" y1="494.2969" y2="494.2969"/><text fill="#000000" font-family="sans-serif" font-size="14" lengthAdjust="spacing" textLength="139.3232" x="285.35" y="485.9951">Selecci&#243;nDeUsuario</text></g><g id="AccesoAContenidos"><rect fill="#F1F1F1" height="50" rx="12.5" ry="12.5" style="stroke:#181818;stroke-width:0.5;" width="157.8467" x="390.09" y="595"/><line style="stroke:#181818;stroke-width:0.5;" x1="390.09" x2="547.9367" y1="621.2969" y2="621.2969"/><text fill="#000000" font-family="sans-serif" font-size="14" lengthAdjust="spacing" textLength="137.8467" x="400.09" y="612.9951">AccesoAContenidos</text></g><g id="Reproducci&#243;n"><rect fill="#F1F1F1" height="50" rx="12.5" ry="12.5" style="stroke:#181818;stroke-width:0.5;" width="116.0313" x="129" y="722"/><line style="stroke:#181818;stroke-width:0.5;" x1="129" x2="245.0313" y1="748.2969" y2="748.2969"/><text fill="#000000" font-family="sans-serif" font-size="14" lengthAdjust="spacing" textLength="96.0313" x="139" y="739.9951">Reproducci&#243;n</text></g><g id="AjustesDeCuenta"><rect fill="#F1F1F1" height="50" rx="12.5" ry="12.5" style="stroke:#181818;stroke-width:0.5;" width="140.627" x="480.7" y="722"/><line style="stroke:#181818;stroke-width:0.5;" x1="480.7" x2="621.327" y1="748.2969" y2="748.2969"/><text fill="#000000" font-family="sans-serif" font-size="14" lengthAdjust="spacing" textLength="120.627" x="490.7" y="739.9951">AjustesDeCuenta</text></g><ellipse cx="798.02" cy="747" fill="none" rx="11" ry="11" style="stroke:#222222;stroke-width:1.0;"/><ellipse cx="798.02" cy="747" fill="#222222" rx="6" ry="6" style="stroke:#222222;stroke-width:1.0;"/><!--link *start* to SinAcceso--><g id="link_*start*_SinAcceso"><path d="M293.02,26.36 C293.02,40.29 293.02,60.95 293.02,80.65 " fill="none" id="*start*-to-SinAcceso" style="stroke:#181818;stroke-width:1.0;"/><polygon fill="#181818" points="293.02,86.65,297.02,77.65,293.02,81.65,289.02,77.65,293.02,86.65" style="stroke:#181818;stroke-width:1.0;"/></g><!--link SinAcceso to InicioDeSesi?n--><g id="link_SinAcceso_InicioDeSesi&#243;n"><path d="M247.03,117.56 C190.54,125.89 96.96,149.24 54.02,214 C6,286.42 135.2799,330.2921 219.4499,350.7621 " fill="none" id="SinAcceso-to-InicioDeSesi&#243;n" style="stroke:#181818;stroke-width:1.0;"/><polygon fill="#181818" points="225.28,352.18,217.4801,346.1665,220.4216,350.9984,215.5897,353.9399,225.28,352.18" style="stroke:#181818;stroke-width:1.0;"/><text fill="#000000" font-family="sans-serif" font-size="13" lengthAdjust="spacing" textLength="126.001" x="55.02" y="243.5669">"Usuario existente"</text></g><!--link InicioDeSesi?n to SinAcceso--><g id="link_InicioDeSesi&#243;n_SinAcceso"><path d="M316.16,340.56 C324.15,332.11 331.78,321.98 336.02,311 C359.07,251.3 357.13,227.42 336.02,167 C332.26,156.25 329.218,150.6536 322.038,142.0636 " fill="none" id="InicioDeSesi&#243;n-to-SinAcceso" style="stroke:#181818;stroke-width:1.0;"/><polygon fill="#181818" points="318.19,137.46,320.8929,146.9307,321.3966,141.2963,327.031,141.8001,318.19,137.46" style="stroke:#181818;stroke-width:1.0;"/><text fill="#000000" font-family="sans-serif" font-size="13" lengthAdjust="spacing" textLength="157.8345" x="353.02" y="243.5669">"Credenciales inv&#225;lidas"</text></g><!--link SinAcceso to Registro--><g id="link_SinAcceso_Registro"><path d="M250.34,137.37 C240.18,145.4 230.65,155.33 225.02,167 C217.97,181.6 219.4724,193.8924 224.7924,208.0724 " fill="none" id="SinAcceso-to-Registro" style="stroke:#181818;stroke-width:1.0;"/><polygon fill="#181818" points="226.9,213.69,227.4837,203.8585,225.1437,209.0086,219.9935,206.6686,226.9,213.69" style="stroke:#181818;stroke-width:1.0;"/><text fill="#000000" font-family="sans-serif" font-size="13" lengthAdjust="spacing" textLength="105.8281" x="226.02" y="180.0669">"Nuevo usuario"</text></g><!--link Registro to InicioDeSesi?n--><g id="link_Registro_InicioDeSesi&#243;n"><path d="M220.31,264.27 C211.9,278.27 205.4,296.02 213.02,311 C219.07,322.91 224.2906,329.2596 235.0606,337.1996 " fill="none" id="Registro-to-InicioDeSesi&#243;n" style="stroke:#181818;stroke-width:1.0;"/><polygon fill="#181818" points="239.89,340.76,235.0195,332.1998,235.8655,337.793,230.2722,338.639,239.89,340.76" style="stroke:#181818;stroke-width:1.0;"/><text fill="#000000" font-family="sans-serif" font-size="13" lengthAdjust="spacing" textLength="117.2349" x="214.02" y="307.0669">"Registro exitoso"</text></g><!--link InicioDeSesi?n to Selecci?nDeUsuario--><g id="link_InicioDeSesi&#243;n_Selecci&#243;nDeUsuario"><path d="M300.29,391.4 C312.27,413.42 326.9424,440.3896 338.9124,462.3896 " fill="none" id="InicioDeSesi&#243;n-to-Selecci&#243;nDeUsuario" style="stroke:#181818;stroke-width:1.0;"/><polygon fill="#181818" points="341.78,467.66,340.9922,457.8427,339.3904,463.268,333.965,461.6661,341.78,467.66" style="stroke:#181818;stroke-width:1.0;"/><text fill="#000000" font-family="sans-serif" font-size="13" lengthAdjust="spacing" textLength="145.9834" x="326.02" y="434.0669">"Credenciales v&#225;lidas"</text></g><!--link Selecci?nDeUsuario to AccesoAContenidos--><g id="link_Selecci&#243;nDeUsuario_AccesoAContenidos"><path d="M364.28,518.46 C370.61,533.04 380.01,551.31 392.02,565 C401.81,576.17 409.4202,582.839 421.5502,591.149 " fill="none" id="Selecci&#243;nDeUsuario-to-AccesoAContenidos" style="stroke:#181818;stroke-width:1.0;"/><polygon fill="#181818" points="426.5,594.54,421.3359,586.1536,422.3751,591.7141,416.8146,592.7534,426.5,594.54" style="stroke:#181818;stroke-width:1.0;"/><text fill="#000000" font-family="sans-serif" font-size="13" lengthAdjust="spacing" textLength="150.1475" x="393.02" y="561.0669">"Usuario seleccionado"</text></g><!--link AccesoAContenidos to Reproducci?n--><g id="link_AccesoAContenidos_Reproducci&#243;n"><path d="M389.77,620.98 C292.73,622.84 136.69,632.57 100.02,675 C84.27,693.22 98.6554,707.5952 123.2554,720.4852 " fill="none" id="AccesoAContenidos-to-Reproducci&#243;n" style="stroke:#181818;stroke-width:1.0;"/><polygon fill="#181818" points="128.57,723.27,122.4546,715.5498,124.1412,720.9494,118.7416,722.6359,128.57,723.27" style="stroke:#181818;stroke-width:1.0;"/><text fill="#000000" font-family="sans-serif" font-size="13" lengthAdjust="spacing" textLength="126.8706" x="101.02" y="688.0669">"Seleccionar video"</text></g><!--link Reproducci?n to AccesoAContenidos--><g id="link_Reproducci&#243;n_AccesoAContenidos"><path d="M218.36,721.71 C238.97,706.65 267.02,687.79 294.02,675 C324.19,660.7 353.2819,650.7021 383.9019,641.9321 " fill="none" id="Reproducci&#243;n-to-AccesoAContenidos" style="stroke:#181818;stroke-width:1.0;"/><polygon fill="#181818" points="389.67,640.28,379.9165,638.9127,384.8633,641.6567,382.1193,646.6035,389.67,640.28" style="stroke:#181818;stroke-width:1.0;"/><text fill="#000000" font-family="sans-serif" font-size="13" lengthAdjust="spacing" textLength="156.2285" x="295.02" y="688.0669">"Finalizar reproducci&#243;n"</text></g><!--link AccesoAContenidos to AjustesDeCuenta--><g id="link_AccesoAContenidos_AjustesDeCuenta"><path d="M461.94,645.45 C459.19,659.85 458.29,677.94 466.02,692 C472.67,704.1 478.3264,710.5388 489.8564,718.2688 " fill="none" id="AccesoAContenidos-to-AjustesDeCuenta" style="stroke:#181818;stroke-width:1.0;"/><polygon fill="#181818" points="494.84,721.61,489.592,713.2758,490.687,718.8257,485.1371,719.9207,494.84,721.61" style="stroke:#181818;stroke-width:1.0;"/><text fill="#000000" font-family="sans-serif" font-size="13" lengthAdjust="spacing" textLength="122.2305" x="467.02" y="688.0669">"Modificar ajustes"</text></g><!--link AjustesDeCuenta to AccesoAContenidos--><g id="link_AjustesDeCuenta_AccesoAContenidos"><path d="M580.43,721.73 C593.57,707.89 604.07,690.29 594.02,675 C583.24,658.6 571.7943,649.5937 553.8343,641.6237 " fill="none" id="AjustesDeCuenta-to-AccesoAContenidos" style="stroke:#181818;stroke-width:1.0;"/><polygon fill="#181818" points="548.35,639.19,554.9539,646.4967,552.9202,641.2181,558.1989,639.1844,548.35,639.19" style="stroke:#181818;stroke-width:1.0;"/><text fill="#000000" font-family="sans-serif" font-size="13" lengthAdjust="spacing" textLength="123.646" x="599.02" y="688.0669">"Guardar cambios"</text></g><!--link AccesoAContenidos to SinAcceso--><g id="link_AccesoAContenidos_SinAcceso"><path d="M515.62,594.67 C527.56,586.59 539.43,576.63 548.02,565 C567.63,538.42 570.02,527.04 570.02,494 C570.02,238 570.02,238 570.02,238 C570.02,137.76 423.423,117.7502 344.753,113.9402 " fill="none" id="AccesoAContenidos-to-SinAcceso" style="stroke:#181818;stroke-width:1.0;"/><polygon fill="#181818" points="338.76,113.65,347.556,118.0807,343.7541,113.8919,347.943,110.09,338.76,113.65" style="stroke:#181818;stroke-width:1.0;"/><text fill="#000000" font-family="sans-serif" font-size="13" lengthAdjust="spacing" textLength="98.5156" x="571.02" y="370.5669">"Cerrar sesi&#243;n"</text></g><!--link AccesoAContenidos to *end*--><g id="link_AccesoAContenidos_*end*"><path d="M548.43,624.88 C602.76,630.43 674.84,643.67 731.02,675 C759.14,690.69 779.0903,717.2087 789.2303,732.4087 " fill="none" id="AccesoAContenidos-to-*end*" style="stroke:#181818;stroke-width:1.0;"/><polygon fill="#181818" points="792.56,737.4,790.893,727.6933,789.7852,733.2406,784.2379,732.1329,792.56,737.4" style="stroke:#181818;stroke-width:1.0;"/><text fill="#000000" font-family="sans-serif" font-size="13" lengthAdjust="spacing" textLength="119.7549" x="753.02" y="688.0669">"Salir del sistema"</text></g><!--SRC=[TP91JiGm34NtEKNK9T9SW0LIrGh40XPJiHgn28b1HfqOnKs5k0rdu0XpCPn6X58ckqJVp_x-oU7YKUzsLtf0treBJ4gLuoBSUhH8FGp0UFho-b8t3nnDGDBmZZo1dw3PC7ju4ILGAhwFC9EE6McKAbgbUT6b-qGioBPeiGiZM9kkFVpO4RWBuC1RD2Emda-V8ph3bGx5yPP3_qkgSuCIdjcs8rdVeoDU1yCP8czSMlb_RGxfBP2BkNcYXq85FQC3GS-JxMkKtBc7Bahw9h5tvF0PhP0cYqlIwm5LqzVepOWVWeOr8CCtOweTRcHh9xmrnoSahcxyDt88GHZEJr9RzI3VCqKZ3eDsC6fEN-veccy0]--></g></svg>