<svg xmlns="http://www.w3.org/2000/svg" xmlns:xlink="http://www.w3.org/1999/xlink" contentStyleType="text/css" height="582px" preserveAspectRatio="none" style="width:178px;height:582px;background:#FFFFFF;" version="1.1" viewBox="0 0 178 582" width="178px" zoomAndPan="magnify"><defs/><g><ellipse cx="86.66" cy="16" fill="#222222" rx="10" ry="10" style="stroke:#222222;stroke-width:1.0;"/><g id="SinAcceso"><rect fill="#F1F1F1" height="50" rx="12.5" ry="12.5" style="stroke:#181818;stroke-width:0.5;" width="91.0938" x="41.11" y="86"/><line style="stroke:#181818;stroke-width:0.5;" x1="41.11" x2="132.2038" y1="112.2969" y2="112.2969"/><text fill="#000000" font-family="sans-serif" font-size="14" lengthAdjust="spacing" textLength="71.0938" x="51.11" y="103.9951">SinAcceso</text></g><g id="InicioDeSesi&#243;n"><rect fill="#F1F1F1" height="50" rx="12.5" ry="12.5" style="stroke:#181818;stroke-width:0.5;" width="122.5596" x="25.38" y="306"/><line style="stroke:#181818;stroke-width:0.5;" x1="25.38" x2="147.9396" y1="332.2969" y2="332.2969"/><text fill="#000000" font-family="sans-serif" font-size="14" lengthAdjust="spacing" textLength="102.5596" x="35.38" y="323.9951">InicioDeSesi&#243;n</text></g><g id="Registro"><rect fill="#F1F1F1" height="50" rx="12.5" ry="12.5" style="stroke:#181818;stroke-width:0.5;" width="78.2217" x="93.55" y="196"/><line style="stroke:#181818;stroke-width:0.5;" x1="93.55" x2="171.7717" y1="222.2969" y2="222.2969"/><text fill="#000000" font-family="sans-serif" font-size="14" lengthAdjust="spacing" textLength="58.2217" x="103.55" y="213.9951">Registro</text></g><g id="Selecci&#243;nDeUsuario"><rect fill="#F1F1F1" height="50" rx="12.5" ry="12.5" style="stroke:#181818;stroke-width:0.5;" width="159.3232" x="7" y="416"/><line style="stroke:#181818;stroke-width:0.5;" x1="7" x2="166.3232" y1="442.2969" y2="442.2969"/><text fill="#000000" font-family="sans-serif" font-size="14" lengthAdjust="spacing" textLength="139.3232" x="17" y="433.9951">Selecci&#243;nDeUsuario</text></g><g id="AccesoAContenidos"><rect fill="#F1F1F1" height="50" rx="12.5" ry="12.5" style="stroke:#181818;stroke-width:0.5;" width="157.8467" x="7.74" y="526"/><line style="stroke:#181818;stroke-width:0.5;" x1="7.74" x2="165.5867" y1="552.2969" y2="552.2969"/><text fill="#000000" font-family="sans-serif" font-size="14" lengthAdjust="spacing" textLength="137.8467" x="17.74" y="543.9951">AccesoAContenidos</text></g><!--link *start* to SinAcceso--><g id="link_*start*_SinAcceso"><path d="M86.66,26.26 C86.66,39.95 86.66,60.07 86.66,79.52 " fill="none" id="*start*-to-SinAcceso" style="stroke:#181818;stroke-width:1.0;"/><polygon fill="#181818" points="86.66,85.52,90.66,76.52,86.66,80.52,82.66,76.52,86.66,85.52" style="stroke:#181818;stroke-width:1.0;"/></g><!--link SinAcceso to InicioDeSesi?n--><g id="link_SinAcceso_InicioDeSesi&#243;n"><path d="M82.65,136.18 C80.08,152.92 76.98,175.75 75.66,196 C74.22,218.18 74.22,223.82 75.66,246 C76.98,266.25 79.1695,283.1495 81.7395,299.8895 " fill="none" id="SinAcceso-to-InicioDeSesi&#243;n" style="stroke:#181818;stroke-width:1.0;"/><polygon fill="#181818" points="82.65,305.82,85.238,296.3172,81.8913,300.8779,77.3306,297.5312,82.65,305.82" style="stroke:#181818;stroke-width:1.0;"/></g><!--link SinAcceso to Registro--><g id="link_SinAcceso_Registro"><path d="M96.98,136.24 C104.56,154.02 112.46,172.5594 120.02,190.3194 " fill="none" id="SinAcceso-to-Registro" style="stroke:#181818;stroke-width:1.0;"/><polygon fill="#181818" points="122.37,195.84,122.5254,185.9924,120.4117,191.2395,115.1646,189.1257,122.37,195.84" style="stroke:#181818;stroke-width:1.0;"/></g><!--link Registro to InicioDeSesi?n--><g id="link_Registro_InicioDeSesi&#243;n"><path d="M122.34,246.24 C114.76,264.02 106.8726,282.5605 99.3026,300.3205 " fill="none" id="Registro-to-InicioDeSesi&#243;n" style="stroke:#181818;stroke-width:1.0;"/><polygon fill="#181818" points="96.95,305.84,104.1586,299.1291,98.9105,301.2404,96.7993,295.9923,96.95,305.84" style="stroke:#181818;stroke-width:1.0;"/></g><!--link InicioDeSesi?n to Selecci?nDeUsuario--><g id="link_InicioDeSesi&#243;n_Selecci&#243;nDeUsuario"><path d="M86.66,356.24 C86.66,374.02 86.66,392.08 86.66,409.84 " fill="none" id="InicioDeSesi&#243;n-to-Selecci&#243;nDeUsuario" style="stroke:#181818;stroke-width:1.0;"/><polygon fill="#181818" points="86.66,415.84,90.66,406.84,86.66,410.84,82.66,406.84,86.66,415.84" style="stroke:#181818;stroke-width:1.0;"/></g><!--link Selecci?nDeUsuario to AccesoAContenidos--><g id="link_Selecci&#243;nDeUsuario_AccesoAContenidos"><path d="M86.66,466.24 C86.66,484.02 86.66,502.08 86.66,519.84 " fill="none" id="Selecci&#243;nDeUsuario-to-AccesoAContenidos" style="stroke:#181818;stroke-width:1.0;"/><polygon fill="#181818" points="86.66,525.84,90.66,516.84,86.66,520.84,82.66,516.84,86.66,525.84" style="stroke:#181818;stroke-width:1.0;"/></g><!--SRC=[YzQALT3LjLC8pinpJ4vEBSxdue8pmHAUUPd9cVakgS6fnPc7D-UXoGQbfcSMbnJbSy4OMFMWyI4MfkQa9YU3k2wfeSMbYKMP-LnOnC1g8HOwEkVdbQJcPQRa5mC0]--></g></svg>