<svg xmlns="http://www.w3.org/2000/svg" xmlns:xlink="http://www.w3.org/1999/xlink" contentStyleType="text/css" height="978px" preserveAspectRatio="none" style="width:485px;height:978px;background:#FFFFFF;" version="1.1" viewBox="0 0 485 978" width="485px" zoomAndPan="magnify"><defs/><g><!--class InicioDeSesi?n--><g id="elem_InicioDeSesi&#243;n"><rect codeLine="1" fill="#F1F1F1" height="80.5938" id="InicioDeSesi&#243;n" rx="2.5" ry="2.5" style="stroke:#181818;stroke-width:0.5;" width="134.5596" x="183.08" y="7"/><ellipse cx="198.08" cy="23" fill="#ADD1B2" rx="11" ry="11" style="stroke:#181818;stroke-width:1.0;"/><path d="M201.0487,28.6406 Q200.4706,28.9375 199.83,29.0781 Q199.1894,29.2344 198.4862,29.2344 Q195.9862,29.2344 194.6581,27.5938 Q193.3456,25.9375 193.3456,22.8125 Q193.3456,19.6875 194.6581,18.0313 Q195.9862,16.375 198.4862,16.375 Q199.1894,16.375 199.83,16.5313 Q200.4862,16.6875 201.0487,16.9844 L201.0487,19.7031 Q200.4237,19.125 199.83,18.8594 Q199.2362,18.5781 198.6112,18.5781 Q197.2675,18.5781 196.58,19.6563 Q195.8925,20.7188 195.8925,22.8125 Q195.8925,24.9063 196.58,25.9844 Q197.2675,27.0469 198.6112,27.0469 Q199.2362,27.0469 199.83,26.7813 Q200.4237,26.5 201.0487,25.9219 L201.0487,28.6406 Z " fill="#000000"/><text fill="#000000" font-family="sans-serif" font-size="14" lengthAdjust="spacing" textLength="102.5596" x="212.08" y="27.8467">InicioDeSesi&#243;n</text><line style="stroke:#181818;stroke-width:0.5;" x1="184.08" x2="316.6396" y1="39" y2="39"/><text fill="#000000" font-family="sans-serif" font-size="14" lengthAdjust="spacing" textLength="44.9531" x="189.08" y="55.9951">correo</text><text fill="#000000" font-family="sans-serif" font-size="14" lengthAdjust="spacing" textLength="78.3193" x="189.08" y="72.292">contrase&#241;a</text><line style="stroke:#181818;stroke-width:0.5;" x1="184.08" x2="316.6396" y1="79.5938" y2="79.5938"/></g><!--class Usuario--><g id="elem_Usuario"><rect codeLine="6" fill="#F1F1F1" height="64.2969" id="Usuario" rx="2.5" ry="2.5" style="stroke:#181818;stroke-width:0.5;" width="85.2041" x="207.76" y="164.59"/><ellipse cx="222.76" cy="180.59" fill="#ADD1B2" rx="11" ry="11" style="stroke:#181818;stroke-width:1.0;"/><path d="M225.7288,186.2306 Q225.1506,186.5275 224.51,186.6681 Q223.8694,186.8244 223.1663,186.8244 Q220.6663,186.8244 219.3381,185.1838 Q218.0256,183.5275 218.0256,180.4025 Q218.0256,177.2775 219.3381,175.6213 Q220.6663,173.965 223.1663,173.965 Q223.8694,173.965 224.51,174.1213 Q225.1663,174.2775 225.7288,174.5744 L225.7288,177.2931 Q225.1038,176.715 224.51,176.4494 Q223.9163,176.1681 223.2913,176.1681 Q221.9475,176.1681 221.26,177.2463 Q220.5725,178.3088 220.5725,180.4025 Q220.5725,182.4963 221.26,183.5744 Q221.9475,184.6369 223.2913,184.6369 Q223.9163,184.6369 224.51,184.3713 Q225.1038,184.09 225.7288,183.5119 L225.7288,186.2306 Z " fill="#000000"/><text fill="#000000" font-family="sans-serif" font-size="14" lengthAdjust="spacing" textLength="53.2041" x="236.76" y="185.4367">Usuario</text><line style="stroke:#181818;stroke-width:0.5;" x1="208.76" x2="291.9641" y1="196.59" y2="196.59"/><text fill="#000000" font-family="sans-serif" font-size="14" lengthAdjust="spacing" textLength="54.332" x="213.76" y="213.5851">nombre</text><line style="stroke:#181818;stroke-width:0.5;" x1="208.76" x2="291.9641" y1="220.8869" y2="220.8869"/></g><!--class Men?Principal--><g id="elem_Men&#250;Principal"><rect codeLine="10" fill="#F1F1F1" height="64.2969" id="Men&#250;Principal" rx="2.5" ry="2.5" style="stroke:#181818;stroke-width:0.5;" width="130.3418" x="185.19" y="305.89"/><ellipse cx="200.19" cy="321.89" fill="#ADD1B2" rx="11" ry="11" style="stroke:#181818;stroke-width:1.0;"/><path d="M203.1588,327.5306 Q202.5806,327.8275 201.94,327.9681 Q201.2994,328.1244 200.5963,328.1244 Q198.0963,328.1244 196.7681,326.4838 Q195.4556,324.8275 195.4556,321.7025 Q195.4556,318.5775 196.7681,316.9213 Q198.0963,315.265 200.5963,315.265 Q201.2994,315.265 201.94,315.4213 Q202.5963,315.5775 203.1588,315.8744 L203.1588,318.5931 Q202.5338,318.015 201.94,317.7494 Q201.3463,317.4681 200.7213,317.4681 Q199.3775,317.4681 198.69,318.5463 Q198.0025,319.6088 198.0025,321.7025 Q198.0025,323.7963 198.69,324.8744 Q199.3775,325.9369 200.7213,325.9369 Q201.3463,325.9369 201.94,325.6713 Q202.5338,325.39 203.1588,324.8119 L203.1588,327.5306 Z " fill="#000000"/><text fill="#000000" font-family="sans-serif" font-size="14" lengthAdjust="spacing" textLength="98.3418" x="214.19" y="326.7367">Men&#250;Principal</text><line style="stroke:#181818;stroke-width:0.5;" x1="186.19" x2="314.5318" y1="337.89" y2="337.89"/><text fill="#000000" font-family="sans-serif" font-size="14" lengthAdjust="spacing" textLength="66.0557" x="191.19" y="354.8851">categor&#237;a</text><line style="stroke:#181818;stroke-width:0.5;" x1="186.19" x2="314.5318" y1="362.1869" y2="362.1869"/></g><!--class Buscador--><g id="elem_Buscador"><rect codeLine="14" fill="#F1F1F1" height="64.2969" id="Buscador" rx="2.5" ry="2.5" style="stroke:#181818;stroke-width:0.5;" width="97.2559" x="122.73" y="447.19"/><ellipse cx="137.73" cy="463.19" fill="#ADD1B2" rx="11" ry="11" style="stroke:#181818;stroke-width:1.0;"/><path d="M140.6988,468.8306 Q140.1206,469.1275 139.48,469.2681 Q138.8394,469.4244 138.1363,469.4244 Q135.6363,469.4244 134.3081,467.7838 Q132.9956,466.1275 132.9956,463.0025 Q132.9956,459.8775 134.3081,458.2213 Q135.6363,456.565 138.1363,456.565 Q138.8394,456.565 139.48,456.7213 Q140.1363,456.8775 140.6988,457.1744 L140.6988,459.8931 Q140.0738,459.315 139.48,459.0494 Q138.8863,458.7681 138.2613,458.7681 Q136.9175,458.7681 136.23,459.8463 Q135.5425,460.9088 135.5425,463.0025 Q135.5425,465.0963 136.23,466.1744 Q136.9175,467.2369 138.2613,467.2369 Q138.8863,467.2369 139.48,466.9713 Q140.0738,466.69 140.6988,466.1119 L140.6988,468.8306 Z " fill="#000000"/><text fill="#000000" font-family="sans-serif" font-size="14" lengthAdjust="spacing" textLength="65.2559" x="151.73" y="468.0367">Buscador</text><line style="stroke:#181818;stroke-width:0.5;" x1="123.73" x2="218.9859" y1="479.19" y2="479.19"/><text fill="#000000" font-family="sans-serif" font-size="14" lengthAdjust="spacing" textLength="68.8926" x="128.73" y="496.1851">b&#250;squeda</text><line style="stroke:#181818;stroke-width:0.5;" x1="123.73" x2="218.9859" y1="503.4869" y2="503.4869"/></g><!--class Video--><g id="elem_Video"><rect codeLine="18" fill="#F1F1F1" height="96.8906" id="Video" rx="2.5" ry="2.5" style="stroke:#181818;stroke-width:0.5;" width="84.0166" x="162.35" y="684.67"/><ellipse cx="182.968" cy="700.67" fill="#ADD1B2" rx="11" ry="11" style="stroke:#181818;stroke-width:1.0;"/><path d="M185.9367,706.3106 Q185.3586,706.6075 184.718,706.7481 Q184.0773,706.9044 183.3742,706.9044 Q180.8742,706.9044 179.5461,705.2638 Q178.2336,703.6075 178.2336,700.4825 Q178.2336,697.3575 179.5461,695.7013 Q180.8742,694.045 183.3742,694.045 Q184.0773,694.045 184.718,694.2013 Q185.3742,694.3575 185.9367,694.6544 L185.9367,697.3731 Q185.3117,696.795 184.718,696.5294 Q184.1242,696.2481 183.4992,696.2481 Q182.1555,696.2481 181.468,697.3263 Q180.7805,698.3888 180.7805,700.4825 Q180.7805,702.5763 181.468,703.6544 Q182.1555,704.7169 183.4992,704.7169 Q184.1242,704.7169 184.718,704.4513 Q185.3117,704.17 185.9367,703.5919 L185.9367,706.3106 Z " fill="#000000"/><text fill="#000000" font-family="sans-serif" font-size="14" lengthAdjust="spacing" textLength="39.5322" x="198.2164" y="705.5167">Video</text><line style="stroke:#181818;stroke-width:0.5;" x1="163.35" x2="245.3666" y1="716.67" y2="716.67"/><text fill="#000000" font-family="sans-serif" font-size="14" lengthAdjust="spacing" textLength="72.0166" x="168.35" y="733.6651">resoluci&#243;n</text><text fill="#000000" font-family="sans-serif" font-size="14" lengthAdjust="spacing" textLength="26.8311" x="168.35" y="749.962">tipo</text><text fill="#000000" font-family="sans-serif" font-size="14" lengthAdjust="spacing" textLength="54.332" x="168.35" y="766.2589">nombre</text><line style="stroke:#181818;stroke-width:0.5;" x1="163.35" x2="245.3666" y1="773.5606" y2="773.5606"/></g><!--class PistaDeAudio--><g id="elem_PistaDeAudio"><rect codeLine="24" fill="#F1F1F1" height="64.2969" id="PistaDeAudio" rx="2.5" ry="2.5" style="stroke:#181818;stroke-width:0.5;" width="124.8799" x="7.92" y="883.01"/><ellipse cx="22.92" cy="899.01" fill="#ADD1B2" rx="11" ry="11" style="stroke:#181818;stroke-width:1.0;"/><path d="M25.8888,904.6506 Q25.3106,904.9475 24.67,905.0881 Q24.0294,905.2444 23.3263,905.2444 Q20.8263,905.2444 19.4981,903.6038 Q18.1856,901.9475 18.1856,898.8225 Q18.1856,895.6975 19.4981,894.0413 Q20.8263,892.385 23.3263,892.385 Q24.0294,892.385 24.67,892.5413 Q25.3263,892.6975 25.8888,892.9944 L25.8888,895.7131 Q25.2638,895.135 24.67,894.8694 Q24.0763,894.5881 23.4513,894.5881 Q22.1075,894.5881 21.42,895.6663 Q20.7325,896.7288 20.7325,898.8225 Q20.7325,900.9163 21.42,901.9944 Q22.1075,903.0569 23.4513,903.0569 Q24.0763,903.0569 24.67,902.7913 Q25.2638,902.51 25.8888,901.9319 L25.8888,904.6506 Z " fill="#000000"/><text fill="#000000" font-family="sans-serif" font-size="14" lengthAdjust="spacing" textLength="92.8799" x="36.92" y="903.8567">PistaDeAudio</text><line style="stroke:#181818;stroke-width:0.5;" x1="8.92" x2="131.7999" y1="915.01" y2="915.01"/><text fill="#000000" font-family="sans-serif" font-size="14" lengthAdjust="spacing" textLength="47.4482" x="13.92" y="932.0051">idioma</text><line style="stroke:#181818;stroke-width:0.5;" x1="8.92" x2="131.7999" y1="939.3069" y2="939.3069"/></g><!--class Subt?tulos--><g id="elem_Subt&#237;tulos"><rect codeLine="28" fill="#F1F1F1" height="113.1875" id="Subt&#237;tulos" rx="2.5" ry="2.5" style="stroke:#181818;stroke-width:0.5;" width="102.1367" x="168.29" y="858.56"/><ellipse cx="183.29" cy="874.56" fill="#ADD1B2" rx="11" ry="11" style="stroke:#181818;stroke-width:1.0;"/><path d="M186.2588,880.2006 Q185.6806,880.4975 185.04,880.6381 Q184.3994,880.7944 183.6963,880.7944 Q181.1963,880.7944 179.8681,879.1538 Q178.5556,877.4975 178.5556,874.3725 Q178.5556,871.2475 179.8681,869.5913 Q181.1963,867.935 183.6963,867.935 Q184.3994,867.935 185.04,868.0913 Q185.6963,868.2475 186.2588,868.5444 L186.2588,871.2631 Q185.6338,870.685 185.04,870.4194 Q184.4463,870.1381 183.8213,870.1381 Q182.4775,870.1381 181.79,871.2163 Q181.1025,872.2788 181.1025,874.3725 Q181.1025,876.4663 181.79,877.5444 Q182.4775,878.6069 183.8213,878.6069 Q184.4463,878.6069 185.04,878.3413 Q185.6338,878.06 186.2588,877.4819 L186.2588,880.2006 Z " fill="#000000"/><text fill="#000000" font-family="sans-serif" font-size="14" lengthAdjust="spacing" textLength="70.1367" x="197.29" y="879.4067">Subt&#237;tulos</text><line style="stroke:#181818;stroke-width:0.5;" x1="169.29" x2="269.4267" y1="890.56" y2="890.56"/><text fill="#000000" font-family="sans-serif" font-size="14" lengthAdjust="spacing" textLength="47.4482" x="174.29" y="907.5551">idioma</text><text fill="#000000" font-family="sans-serif" font-size="14" lengthAdjust="spacing" textLength="34.4736" x="174.29" y="923.852">color</text><text fill="#000000" font-family="sans-serif" font-size="14" lengthAdjust="spacing" textLength="53.7236" x="174.29" y="940.1489">tama&#241;o</text><text fill="#000000" font-family="sans-serif" font-size="14" lengthAdjust="spacing" textLength="45.3906" x="174.29" y="956.4457">fuente</text><line style="stroke:#181818;stroke-width:0.5;" x1="169.29" x2="269.4267" y1="963.7475" y2="963.7475"/></g><!--class AjustesDeCuenta--><g id="elem_AjustesDeCuenta"><rect codeLine="35" fill="#F1F1F1" height="113.1875" id="AjustesDeCuenta" rx="2.5" ry="2.5" style="stroke:#181818;stroke-width:0.5;" width="152.627" x="326.05" y="541.48"/><ellipse cx="341.05" cy="557.48" fill="#ADD1B2" rx="11" ry="11" style="stroke:#181818;stroke-width:1.0;"/><path d="M344.0188,563.1206 Q343.4406,563.4175 342.8,563.5581 Q342.1594,563.7144 341.4563,563.7144 Q338.9563,563.7144 337.6281,562.0738 Q336.3156,560.4175 336.3156,557.2925 Q336.3156,554.1675 337.6281,552.5113 Q338.9563,550.855 341.4563,550.855 Q342.1594,550.855 342.8,551.0113 Q343.4563,551.1675 344.0188,551.4644 L344.0188,554.1831 Q343.3938,553.605 342.8,553.3394 Q342.2063,553.0581 341.5813,553.0581 Q340.2375,553.0581 339.55,554.1363 Q338.8625,555.1988 338.8625,557.2925 Q338.8625,559.3863 339.55,560.4644 Q340.2375,561.5269 341.5813,561.5269 Q342.2063,561.5269 342.8,561.2613 Q343.3938,560.98 344.0188,560.4019 L344.0188,563.1206 Z " fill="#000000"/><text fill="#000000" font-family="sans-serif" font-size="14" lengthAdjust="spacing" textLength="120.627" x="355.05" y="562.3267">AjustesDeCuenta</text><line style="stroke:#181818;stroke-width:0.5;" x1="327.05" x2="477.677" y1="573.48" y2="573.48"/><text fill="#000000" font-family="sans-serif" font-size="14" lengthAdjust="spacing" textLength="47.4482" x="332.05" y="590.4751">idioma</text><text fill="#000000" font-family="sans-serif" font-size="14" lengthAdjust="spacing" textLength="44.584" x="332.05" y="606.772">regi&#243;n</text><text fill="#000000" font-family="sans-serif" font-size="14" lengthAdjust="spacing" textLength="63.3623" x="332.05" y="623.0689">conexi&#243;n</text><text fill="#000000" font-family="sans-serif" font-size="14" lengthAdjust="spacing" textLength="120.1758" x="332.05" y="639.3657">m&#233;todo_de_pago</text><line style="stroke:#181818;stroke-width:0.5;" x1="327.05" x2="477.677" y1="646.6675" y2="646.6675"/></g><!--class Watchlist--><g id="elem_Watchlist"><rect codeLine="42" fill="#F1F1F1" height="64.2969" id="Watchlist" rx="2.5" ry="2.5" style="stroke:#181818;stroke-width:0.5;" width="97.0439" x="254.84" y="447.19"/><ellipse cx="269.84" cy="463.19" fill="#ADD1B2" rx="11" ry="11" style="stroke:#181818;stroke-width:1.0;"/><path d="M272.8088,468.8306 Q272.2306,469.1275 271.59,469.2681 Q270.9494,469.4244 270.2463,469.4244 Q267.7463,469.4244 266.4181,467.7838 Q265.1056,466.1275 265.1056,463.0025 Q265.1056,459.8775 266.4181,458.2213 Q267.7463,456.565 270.2463,456.565 Q270.9494,456.565 271.59,456.7213 Q272.2463,456.8775 272.8088,457.1744 L272.8088,459.8931 Q272.1838,459.315 271.59,459.0494 Q270.9963,458.7681 270.3713,458.7681 Q269.0275,458.7681 268.34,459.8463 Q267.6525,460.9088 267.6525,463.0025 Q267.6525,465.0963 268.34,466.1744 Q269.0275,467.2369 270.3713,467.2369 Q270.9963,467.2369 271.59,466.9713 Q272.1838,466.69 272.8088,466.1119 L272.8088,468.8306 Z " fill="#000000"/><text fill="#000000" font-family="sans-serif" font-size="14" lengthAdjust="spacing" textLength="65.0439" x="283.84" y="468.0367">Watchlist</text><line style="stroke:#181818;stroke-width:0.5;" x1="255.84" x2="350.8839" y1="479.19" y2="479.19"/><text fill="#000000" font-family="sans-serif" font-size="14" lengthAdjust="spacing" textLength="29.1416" x="260.84" y="496.1851">lista</text><line style="stroke:#181818;stroke-width:0.5;" x1="255.84" x2="350.8839" y1="503.4869" y2="503.4869"/></g><!--class Suscripci?n--><g id="elem_Suscripci&#243;n"><rect codeLine="46" fill="#F1F1F1" height="64.2969" id="Suscripci&#243;n" rx="2.5" ry="2.5" style="stroke:#181818;stroke-width:0.5;" width="112.3086" x="318.21" y="883.01"/><ellipse cx="333.21" cy="899.01" fill="#ADD1B2" rx="11" ry="11" style="stroke:#181818;stroke-width:1.0;"/><path d="M336.1788,904.6506 Q335.6006,904.9475 334.96,905.0881 Q334.3194,905.2444 333.6163,905.2444 Q331.1163,905.2444 329.7881,903.6038 Q328.4756,901.9475 328.4756,898.8225 Q328.4756,895.6975 329.7881,894.0413 Q331.1163,892.385 333.6163,892.385 Q334.3194,892.385 334.96,892.5413 Q335.6163,892.6975 336.1788,892.9944 L336.1788,895.7131 Q335.5538,895.135 334.96,894.8694 Q334.3663,894.5881 333.7413,894.5881 Q332.3975,894.5881 331.71,895.6663 Q331.0225,896.7288 331.0225,898.8225 Q331.0225,900.9163 331.71,901.9944 Q332.3975,903.0569 333.7413,903.0569 Q334.3663,903.0569 334.96,902.7913 Q335.5538,902.51 336.1788,901.9319 L336.1788,904.6506 Z " fill="#000000"/><text fill="#000000" font-family="sans-serif" font-size="14" lengthAdjust="spacing" textLength="80.3086" x="347.21" y="903.8567">Suscripci&#243;n</text><line style="stroke:#181818;stroke-width:0.5;" x1="319.21" x2="429.5186" y1="915.01" y2="915.01"/><text fill="#000000" font-family="sans-serif" font-size="14" lengthAdjust="spacing" textLength="30.2285" x="324.21" y="932.0051">plan</text><line style="stroke:#181818;stroke-width:0.5;" x1="319.21" x2="429.5186" y1="939.3069" y2="939.3069"/></g><!--link InicioDeSesi?n to Usuario--><g id="link_InicioDeSesi&#243;n_Usuario"><path codeLine="50" d="M250.36,87.81 C250.36,111.86 250.36,136.16 250.36,158.53 " fill="none" id="InicioDeSesi&#243;n-to-Usuario" style="stroke:#181818;stroke-width:1.0;"/><polygon fill="#181818" points="250.36,164.53,254.36,155.53,250.36,159.53,246.36,155.53,250.36,164.53" style="stroke:#181818;stroke-width:1.0;"/><text fill="#000000" font-family="sans-serif" font-size="13" lengthAdjust="spacing" textLength="79.6694" x="251.36" y="130.6569">inicia sesi&#243;n</text></g><!--link Usuario to Men?Principal--><g id="link_Usuario_Men&#250;Principal"><path codeLine="51" d="M250.36,229.35 C250.36,252.15 250.36,276.79 250.36,299.56 " fill="none" id="Usuario-to-Men&#250;Principal" style="stroke:#181818;stroke-width:1.0;"/><polygon fill="#181818" points="250.36,305.56,254.36,296.56,250.36,300.56,246.36,296.56,250.36,305.56" style="stroke:#181818;stroke-width:1.0;"/><text fill="#000000" font-family="sans-serif" font-size="13" lengthAdjust="spacing" textLength="46.5093" x="251.36" y="271.9569">accede</text></g><!--link Men?Principal to Watchlist--><g id="link_Men&#250;Principal_Watchlist"><path codeLine="52" d="M262.39,370.65 C271.06,393.44 280.5871,418.4719 289.2471,441.2419 " fill="none" id="Men&#250;Principal-to-Watchlist" style="stroke:#181818;stroke-width:1.0;"/><polygon fill="#181818" points="291.38,446.85,291.9194,437.0159,289.6026,442.1766,284.4419,439.8598,291.38,446.85" style="stroke:#181818;stroke-width:1.0;"/><text fill="#000000" font-family="sans-serif" font-size="13" lengthAdjust="spacing" textLength="38.9619" x="281.36" y="413.2569">utiliza</text></g><!--link Men?Principal to AjustesDeCuenta--><g id="link_Men&#250;Principal_AjustesDeCuenta"><path codeLine="53" d="M299.61,370.54 C324.91,389.51 353.65,416.03 369.36,447.19 C384.06,476.33 392.24,511.91 396.79,541.08 " fill="none" id="Men&#250;Principal-AjustesDeCuenta" style="stroke:#181818;stroke-width:1.0;"/><text fill="#000000" font-family="sans-serif" font-size="13" lengthAdjust="spacing" textLength="46.5093" x="349.36" y="413.2569">accede</text></g><!--link Men?Principal to Buscador--><g id="link_Men&#250;Principal_Buscador"><path codeLine="54" d="M232.43,370.65 C219.5,393.44 205.0893,418.8606 192.1793,441.6306 " fill="none" id="Men&#250;Principal-to-Buscador" style="stroke:#181818;stroke-width:1.0;"/><polygon fill="#181818" points="189.22,446.85,197.1386,440.9937,191.6861,442.5005,190.1793,437.048,189.22,446.85" style="stroke:#181818;stroke-width:1.0;"/><text fill="#000000" font-family="sans-serif" font-size="13" lengthAdjust="spacing" textLength="38.9619" x="217.36" y="413.2569">utiliza</text></g><!--link Men?Principal to Video--><g id="link_Men&#250;Principal_Video"><path codeLine="55" d="M185.09,356.62 C140.51,372.4 84.74,400.46 57.36,447.19 C6,534.83 98.1491,638.2744 157.8391,692.7744 " fill="none" id="Men&#250;Principal-to-Video" style="stroke:#181818;stroke-width:1.0;"/><polygon fill="#181818" points="162.27,696.82,158.3207,687.7976,158.5776,693.4486,152.9266,693.7055,162.27,696.82" style="stroke:#181818;stroke-width:1.0;"/><text fill="#000000" font-family="sans-serif" font-size="13" lengthAdjust="spacing" textLength="46.5093" x="58.36" y="483.9069">accede</text></g><!--link Video to PistaDeAudio--><g id="link_Video_PistaDeAudio"><path codeLine="56" d="M168.8,781.89 C145.08,813.77 114.55,854.79 93.82,882.63 " fill="none" id="Video-PistaDeAudio" style="stroke:#181818;stroke-width:1.0;"/><text fill="#000000" font-family="sans-serif" font-size="13" lengthAdjust="spacing" textLength="32.9443" x="147.36" y="824.6269">tiene</text></g><!--link Video to Subt?tulos--><g id="link_Video_Subt&#237;tulos"><path codeLine="57" d="M208.34,781.89 C210.29,805.33 212.66,833.71 214.7,858.17 " fill="none" id="Video-Subt&#237;tulos" style="stroke:#181818;stroke-width:1.0;"/><text fill="#000000" font-family="sans-serif" font-size="13" lengthAdjust="spacing" textLength="32.9443" x="213.36" y="824.6269">tiene</text></g><!--link Video to Suscripci?n--><g id="link_Video_Suscripci&#243;n"><path codeLine="58" d="M246.82,779.08 C277.31,811.37 313.5108,849.7174 340.5808,878.3874 " fill="none" id="Video-to-Suscripci&#243;n" style="stroke:#181818;stroke-width:1.0;"/><polygon fill="#181818" points="344.7,882.75,341.4297,873.46,341.2674,879.1145,335.6128,878.9522,344.7,882.75" style="stroke:#181818;stroke-width:1.0;"/><text fill="#000000" font-family="sans-serif" font-size="13" lengthAdjust="spacing" textLength="56.9893" x="290.36" y="824.6269">depende</text></g><!--link AjustesDeCuenta to Suscripci?n--><g id="link_AjustesDeCuenta_Suscripci&#243;n"><path codeLine="59" d="M397.39,655.04 C391.49,721.36 382.4108,823.5535 377.6908,876.6935 " fill="none" id="AjustesDeCuenta-to-Suscripci&#243;n" style="stroke:#181818;stroke-width:1.0;"/><polygon fill="#181818" points="377.16,882.67,381.9406,874.0592,377.6024,877.6896,373.9719,873.3514,377.16,882.67" style="stroke:#181818;stroke-width:1.0;"/><text fill="#000000" font-family="sans-serif" font-size="13" lengthAdjust="spacing" textLength="32.9443" x="395.36" y="737.6869">tiene</text></g><!--link Buscador to Video--><g id="link_Buscador_Video"><path codeLine="60" d="M169.96,511.81 C169.02,546.95 169.29,605.37 178.36,654.67 C180.16,664.44 181.1186,668.9268 184.1686,678.6168 " fill="none" id="Buscador-to-Video" style="stroke:#181818;stroke-width:1.0;"/><polygon fill="#181818" points="185.97,684.34,187.0833,674.5543,184.4688,679.5707,179.4524,676.9562,185.97,684.34" style="stroke:#181818;stroke-width:1.0;"/><text fill="#000000" font-family="sans-serif" font-size="13" lengthAdjust="spacing" textLength="46.5093" x="179.36" y="602.6469">accede</text></g><!--link Watchlist to Video--><g id="link_Watchlist_Video"><path codeLine="61" d="M278.12,511.72 C271.62,520.91 265.13,531.25 260.36,541.48 C238.38,588.66 245.32,604.82 230.36,654.67 C227.47,664.32 226.0669,668.8744 222.8269,678.6544 " fill="none" id="Watchlist-to-Video" style="stroke:#181818;stroke-width:1.0;"/><polygon fill="#181818" points="220.94,684.35,227.5674,677.0645,222.5124,679.6037,219.9733,674.5487,220.94,684.35" style="stroke:#181818;stroke-width:1.0;"/><text fill="#000000" font-family="sans-serif" font-size="13" lengthAdjust="spacing" textLength="46.5093" x="261.36" y="602.6469">accede</text></g><!--SRC=[VLAxRiCm3Dpz5Vg1_82706czT2WG86Wx1ep4fYfaqTK3A5hqWpfa2BfbrO_LYXrPjeDu8dtdkpD9hi1Qzg0bbrJX1gqCVvfz5wnzE1c3r9VQ6R0OZb3y50K_V_LaFHX9FLjJlJCue8-emsbjfEQo0NMH18TxCk6GoTnvoq6GwIcxSB8V7aN6U9O2BpO6BIdFOynpxsH3L_tNqZgeSEL5YYZRiivqDtxdmi5vHNRCw7vPaUaie8Pmx5nUFMgNkQpUlNLeAxoF0Cnb3EvJrdQA-9cwElmw4hGLk6rWJuFc2pZ-fjhulLeiHwajDxBXsQOQ1JeIfdjSB9PfIoMJ4GLcEx2u094qMLR9W7CKM4pUH-gGhcJUIIM_O4wRpUMMOZg06uBB_WYIJjUsJgCzb-qzeCxGVCLJS3aUPSa4DgXRxMduAzHEAIM_4d2Oqnpy1m00]--></g></svg>