<svg xmlns="http://www.w3.org/2000/svg" xmlns:xlink="http://www.w3.org/1999/xlink" contentStyleType="text/css" height="840px" preserveAspectRatio="none" style="width:774px;height:840px;background:#FFFFFF;" version="1.1" viewBox="0 0 774 840" width="774px" zoomAndPan="magnify"><defs/><g><g id="elem_InicioDeSesi&#243;n"><rect fill="#F1F1F1" height="60.8906" style="stroke:#181818;stroke-width:0.5;" width="258.5244" x="225.27" y="7"/><text fill="#000000" font-family="sans-serif" font-size="14" lengthAdjust="spacing" textLength="102.5596" x="303.2524" y="21.9951">InicioDeSesi&#243;n</text><line style="stroke:#181818;stroke-width:0.5;" x1="226.27" x2="482.7944" y1="27.2969" y2="27.2969"/><text fill="#000000" font-family="sans-serif" font-size="14" lengthAdjust="spacing" textLength="246.5244" x="231.27" y="44.292">correo = "josemanuel@gmail.com"</text><text fill="#000000" font-family="sans-serif" font-size="14" lengthAdjust="spacing" textLength="238.6563" x="231.27" y="60.5889">contrase&#241;a = "nombreDeMiPerro"</text></g><g id="elem_Usuario"><rect fill="#F1F1F1" height="44.5938" style="stroke:#181818;stroke-width:0.5;" width="128.4434" x="290.31" y="144.89"/><text fill="#000000" font-family="sans-serif" font-size="14" lengthAdjust="spacing" textLength="53.2041" x="327.9296" y="159.8851">Usuario</text><line style="stroke:#181818;stroke-width:0.5;" x1="291.31" x2="417.7534" y1="165.1869" y2="165.1869"/><text fill="#000000" font-family="sans-serif" font-size="14" lengthAdjust="spacing" textLength="116.4434" x="296.31" y="182.182">nombre = "Jose"</text></g><g id="elem_Men&#250;Principal"><rect fill="#F1F1F1" height="44.5938" style="stroke:#181818;stroke-width:0.5;" width="215.998" x="246.53" y="266.49"/><text fill="#000000" font-family="sans-serif" font-size="14" lengthAdjust="spacing" textLength="98.3418" x="305.3581" y="281.4851">Men&#250;Principal</text><line style="stroke:#181818;stroke-width:0.5;" x1="247.53" x2="461.528" y1="286.7869" y2="286.7869"/><text fill="#000000" font-family="sans-serif" font-size="14" lengthAdjust="spacing" textLength="203.998" x="252.53" y="303.782">categor&#237;a = "Ciencia Ficci&#243;n"</text></g><g id="elem_Buscador"><rect fill="#F1F1F1" height="44.5938" style="stroke:#181818;stroke-width:0.5;" width="168.4199" x="135.32" y="388.08"/><text fill="#000000" font-family="sans-serif" font-size="14" lengthAdjust="spacing" textLength="65.2559" x="186.902" y="403.0751">Buscador</text><line style="stroke:#181818;stroke-width:0.5;" x1="136.32" x2="302.7399" y1="408.3769" y2="408.3769"/><text fill="#000000" font-family="sans-serif" font-size="14" lengthAdjust="spacing" textLength="156.4199" x="141.32" y="425.372">b&#250;squeda = "interest"</text></g><g id="elem_Video"><rect fill="#F1F1F1" height="77.1875" style="stroke:#181818;stroke-width:0.5;" width="180.9365" x="259.06" y="586.16"/><text fill="#000000" font-family="sans-serif" font-size="14" lengthAdjust="spacing" textLength="39.5322" x="329.7621" y="601.1551">Video</text><line style="stroke:#181818;stroke-width:0.5;" x1="260.06" x2="438.9965" y1="606.4569" y2="606.4569"/><text fill="#000000" font-family="sans-serif" font-size="14" lengthAdjust="spacing" textLength="123.6143" x="265.06" y="623.452">resoluci&#243;n = "4K"</text><text fill="#000000" font-family="sans-serif" font-size="14" lengthAdjust="spacing" textLength="114.6592" x="265.06" y="639.7489">tipo = "pel&#237;cula"</text><text fill="#000000" font-family="sans-serif" font-size="14" lengthAdjust="spacing" textLength="168.9365" x="265.06" y="656.0457">nombre = "Interestelar"</text></g><g id="elem_PistaDeAudio"><rect fill="#F1F1F1" height="44.5938" style="stroke:#181818;stroke-width:0.5;" width="134.4043" x="114.33" y="764.79"/><text fill="#000000" font-family="sans-serif" font-size="14" lengthAdjust="spacing" textLength="92.8799" x="135.0922" y="779.7851">PistaDeAudio</text><line style="stroke:#181818;stroke-width:0.5;" x1="115.33" x2="247.7343" y1="785.0869" y2="785.0869"/><text fill="#000000" font-family="sans-serif" font-size="14" lengthAdjust="spacing" textLength="122.4043" x="120.33" y="802.082">idioma = "ingl&#233;s"</text></g><g id="elem_Subt&#237;tulos"><rect fill="#F1F1F1" height="93.4844" style="stroke:#181818;stroke-width:0.5;" width="147.6592" x="283.7" y="740.35"/><text fill="#000000" font-family="sans-serif" font-size="14" lengthAdjust="spacing" textLength="70.1367" x="322.4612" y="755.3451">Subt&#237;tulos</text><line style="stroke:#181818;stroke-width:0.5;" x1="284.7" x2="430.3592" y1="760.6469" y2="760.6469"/><text fill="#000000" font-family="sans-serif" font-size="14" lengthAdjust="spacing" textLength="135.6592" x="289.7" y="777.642">idioma = "espa&#241;ol"</text><text fill="#000000" font-family="sans-serif" font-size="14" lengthAdjust="spacing" textLength="114.4746" x="289.7" y="793.9389">color = "blanco"</text><text fill="#000000" font-family="sans-serif" font-size="14" lengthAdjust="spacing" textLength="122.2197" x="289.7" y="810.2357">tama&#241;o = "12px"</text><text fill="#000000" font-family="sans-serif" font-size="14" lengthAdjust="spacing" textLength="109.5938" x="289.7" y="826.5326">fuente = "arial"</text></g><g id="elem_AjustesDeCuenta"><rect fill="#F1F1F1" height="93.4844" style="stroke:#181818;stroke-width:0.5;" width="208.2051" x="559.43" y="462.67"/><text fill="#000000" font-family="sans-serif" font-size="14" lengthAdjust="spacing" textLength="120.627" x="603.2191" y="477.6651">AjustesDeCuenta</text><line style="stroke:#181818;stroke-width:0.5;" x1="560.43" x2="766.6351" y1="482.9669" y2="482.9669"/><text fill="#000000" font-family="sans-serif" font-size="14" lengthAdjust="spacing" textLength="135.6592" x="565.43" y="499.962">idioma = "espa&#241;ol"</text><text fill="#000000" font-family="sans-serif" font-size="14" lengthAdjust="spacing" textLength="127.5996" x="565.43" y="516.2589">regi&#243;n = "Europa"</text><text fill="#000000" font-family="sans-serif" font-size="14" lengthAdjust="spacing" textLength="196.2051" x="565.43" y="532.5557">conexi&#243;n = "Datos m&#243;viles"</text><text fill="#000000" font-family="sans-serif" font-size="14" lengthAdjust="spacing" textLength="185.8555" x="565.43" y="548.8526">m&#233;todo_de_pago = "VISA"</text></g><g id="elem_Watchlist"><rect fill="#F1F1F1" height="44.5938" style="stroke:#181818;stroke-width:0.5;" width="326.1797" x="338.44" y="388.08"/><text fill="#000000" font-family="sans-serif" font-size="14" lengthAdjust="spacing" textLength="65.0439" x="469.0079" y="403.0751">Watchlist</text><line style="stroke:#181818;stroke-width:0.5;" x1="339.44" x2="663.6197" y1="408.3769" y2="408.3769"/><text fill="#000000" font-family="sans-serif" font-size="14" lengthAdjust="spacing" textLength="314.1797" x="344.44" y="425.372">lista = ["Baby Driver", "Taxi Driver", "Drive"]</text></g><g id="elem_Suscripci&#243;n"><rect fill="#F1F1F1" height="44.5938" style="stroke:#181818;stroke-width:0.5;" width="139.0322" x="483.02" y="764.79"/><text fill="#000000" font-family="sans-serif" font-size="14" lengthAdjust="spacing" textLength="80.3086" x="512.3818" y="779.7851">Suscripci&#243;n</text><line style="stroke:#181818;stroke-width:0.5;" x1="484.02" x2="621.0522" y1="785.0869" y2="785.0869"/><text fill="#000000" font-family="sans-serif" font-size="14" lengthAdjust="spacing" textLength="127.0322" x="489.02" y="802.082">plan = "premium"</text></g><!--link InicioDeSesi?n to Usuario--><g id="link_InicioDeSesi&#243;n_Usuario"><path codeLine="50" d="M354.53,68.07 C354.53,91.51 354.53,117.68 354.53,138.7 " fill="none" id="InicioDeSesi&#243;n-to-Usuario" style="stroke:#181818;stroke-width:1.0;"/><polygon fill="#181818" points="354.53,144.7,358.53,135.7,354.53,139.7,350.53,135.7,354.53,144.7" style="stroke:#181818;stroke-width:1.0;"/><text fill="#000000" font-family="sans-serif" font-size="13" lengthAdjust="spacing" textLength="79.6694" x="355.53" y="110.9569">inicia sesi&#243;n</text></g><!--link Usuario to Men?Principal--><g id="link_Usuario_Men&#250;Principal"><path codeLine="51" d="M354.53,189.85 C354.53,211.52 354.53,238.67 354.53,260.29 " fill="none" id="Usuario-to-Men&#250;Principal" style="stroke:#181818;stroke-width:1.0;"/><polygon fill="#181818" points="354.53,266.29,358.53,257.29,354.53,261.29,350.53,257.29,354.53,266.29" style="stroke:#181818;stroke-width:1.0;"/><text fill="#000000" font-family="sans-serif" font-size="13" lengthAdjust="spacing" textLength="46.5093" x="355.53" y="232.5569">accede</text></g><!--link Men?Principal to Watchlist--><g id="link_Men&#250;Principal_Watchlist"><path codeLine="52" d="M381.15,311.44 C407.79,333.12 443.886,362.4731 470.456,384.0931 " fill="none" id="Men&#250;Principal-to-Watchlist" style="stroke:#181818;stroke-width:1.0;"/><polygon fill="#181818" points="475.11,387.88,470.6537,379.097,471.2317,384.7242,465.6045,385.3023,475.11,387.88" style="stroke:#181818;stroke-width:1.0;"/><text fill="#000000" font-family="sans-serif" font-size="13" lengthAdjust="spacing" textLength="38.9619" x="437.53" y="354.1469">utiliza</text></g><!--link Men?Principal to AjustesDeCuenta--><g id="link_Men&#250;Principal_AjustesDeCuenta"><path codeLine="53" d="M462.98,307.99 C547.88,324.71 655.91,352.31 682.53,388.08 C698.19,409.12 694.22,438.01 685.97,462.21 " fill="none" id="Men&#250;Principal-AjustesDeCuenta" style="stroke:#181818;stroke-width:1.0;"/><text fill="#000000" font-family="sans-serif" font-size="13" lengthAdjust="spacing" textLength="46.5093" x="636.53" y="354.1469">accede</text></g><!--link Men?Principal to Buscador--><g id="link_Men&#250;Principal_Buscador"><path codeLine="54" d="M330.09,311.44 C305.62,333.12 272.6907,362.2809 248.2907,383.9009 " fill="none" id="Men&#250;Principal-to-Buscador" style="stroke:#181818;stroke-width:1.0;"/><polygon fill="#181818" points="243.8,387.88,253.1888,384.9052,247.5423,384.5641,247.8834,378.9175,243.8,387.88" style="stroke:#181818;stroke-width:1.0;"/><text fill="#000000" font-family="sans-serif" font-size="13" lengthAdjust="spacing" textLength="38.9619" x="295.53" y="354.1469">utiliza</text></g><!--link Men?Principal to Video--><g id="link_Men&#250;Principal_Video"><path codeLine="55" d="M246.22,297.15 C183.59,307.63 109.49,332.04 69.53,388.08 C6,477.2 149.1313,550.9225 253.2413,591.0425 " fill="none" id="Men&#250;Principal-to-Video" style="stroke:#181818;stroke-width:1.0;"/><polygon fill="#181818" points="258.84,593.2,251.8803,586.2313,254.1744,591.4021,249.0036,593.6962,258.84,593.2" style="stroke:#181818;stroke-width:1.0;"/><text fill="#000000" font-family="sans-serif" font-size="13" lengthAdjust="spacing" textLength="46.5093" x="70.53" y="414.9469">accede</text></g><!--link Video to PistaDeAudio--><g id="link_Video_PistaDeAudio"><path codeLine="56" d="M309.72,663.75 C276.73,695.23 231.03,738.85 204.04,764.6 " fill="none" id="Video-PistaDeAudio" style="stroke:#181818;stroke-width:1.0;"/><text fill="#000000" font-family="sans-serif" font-size="13" lengthAdjust="spacing" textLength="32.9443" x="276.53" y="706.4169">tiene</text></g><!--link Video to Subt?tulos--><g id="link_Video_Subt&#237;tulos"><path codeLine="57" d="M351.43,663.75 C352.57,686.62 354.03,715.9 355.24,740.08 " fill="none" id="Video-Subt&#237;tulos" style="stroke:#181818;stroke-width:1.0;"/><text fill="#000000" font-family="sans-serif" font-size="13" lengthAdjust="spacing" textLength="32.9443" x="354.53" y="706.4169">tiene</text></g><!--link Video to Suscripci?n--><g id="link_Video_Suscripci&#243;n"><path codeLine="58" d="M397.64,663.75 C437.39,695.14 487.6915,734.8811 520.3315,760.6611 " fill="none" id="Video-to-Suscripci&#243;n" style="stroke:#181818;stroke-width:1.0;"/><polygon fill="#181818" points="525.04,764.38,520.4565,755.6627,521.1163,761.2809,515.498,761.9406,525.04,764.38" style="stroke:#181818;stroke-width:1.0;"/><text fill="#000000" font-family="sans-serif" font-size="13" lengthAdjust="spacing" textLength="56.9893" x="451.53" y="706.4169">depende</text></g><!--link AjustesDeCuenta to Suscripci?n--><g id="link_AjustesDeCuenta_Suscripci&#243;n"><path codeLine="59" d="M644.95,556.56 C620.7,616.79 581.471,714.2242 563.501,758.8542 " fill="none" id="AjustesDeCuenta-to-Suscripci&#243;n" style="stroke:#181818;stroke-width:1.0;"/><polygon fill="#181818" points="561.26,764.42,568.3321,757.5654,563.1275,759.7819,560.911,754.5773,561.26,764.42" style="stroke:#181818;stroke-width:1.0;"/><text fill="#000000" font-family="sans-serif" font-size="13" lengthAdjust="spacing" textLength="32.9443" x="631.53" y="629.3169">tiene</text></g><!--link Buscador to Video--><g id="link_Buscador_Video"><path codeLine="60" d="M232.71,432.91 C254.66,468.76 295.8371,536.0429 323.1371,580.6329 " fill="none" id="Buscador-to-Video" style="stroke:#181818;stroke-width:1.0;"/><polygon fill="#181818" points="326.27,585.75,324.982,575.9857,323.6592,581.4857,318.1592,580.163,326.27,585.75" style="stroke:#181818;stroke-width:1.0;"/><text fill="#000000" font-family="sans-serif" font-size="13" lengthAdjust="spacing" textLength="46.5093" x="307.53" y="513.9869">accede</text></g><!--link Watchlist to Video--><g id="link_Watchlist_Video"><path codeLine="61" d="M486.12,432.91 C460.46,468.76 412.1425,536.2812 380.2225,580.8712 " fill="none" id="Watchlist-to-Video" style="stroke:#181818;stroke-width:1.0;"/><polygon fill="#181818" points="376.73,585.75,385.2213,580.7602,379.6404,581.6844,378.7162,576.1035,376.73,585.75" style="stroke:#181818;stroke-width:1.0;"/><text fill="#000000" font-family="sans-serif" font-size="13" lengthAdjust="spacing" textLength="46.5093" x="465.53" y="513.9869">accede</text></g><!--SRC=[XL9DRnCn4Btlhx3sJ950d28HaNQf552bI85oGAYQzKx3H5vxyKSLGFoW7dAeUklLVwpsVjNPL6LFtddFRzwCdogto2rRIkAa2boZ8NylsT-CXOyhhL6nzopVAeCrI8VYmwO64g-vglEU8wq6W_uE8b6gkjHOu0MjK6kLP_-oJ7KzlXe7cbIltH7ZbKz1E-LTeFGFAqsIKmDYi08MDqhxVTlbZ32WmCw9y-WtlNxg38TAwVvYwH_CBuTLUu-aHOt6flnBgd0m5J0bN2iPwUy-TpDQQjejD2ZydZi1-MI4PQ-B0dIglI9ZeS25gyQvAHphtin6-5kJyjUkj7vldL3cY8wc0N-dnB1s4KOCvLA0vAht2NManFARjyskArux3EvYBMmVHDfkiNN1iodmB7BWFoqrReR5V7HQDJ0607S3K80Drcj_VqC2JKUe_QrLbRggyAg1JUlkShbUf4Q-WUK_HLXMRo4UeuFl-IcKlrcXwGPr_ehbNs17oMzxodySRD1mJGrFKjo43RMlfx4cLxTzfta_EPcF-PmnYYWmqu7P04JI99mp1fnZXTca7gbFGysOioJe3npJZjxW9SKnsYy8plj0ZphTR-Xq4CPP23NA14sZDmNdXskTiGeRb45xQluPQgSqEd_6uDEUZi57]--></g></svg>